<svg width="155" height="156" viewBox="0 0 155 156" fill="none" xmlns="http://www.w3.org/2000/svg">
<g filter="url(#filter0_d_0_5748)">
<mask id="mask0_0_5748" style="mask-type:alpha" maskUnits="userSpaceOnUse" x="4" y="1" width="147" height="147">
<circle cx="77.1883" cy="74.362" r="73.0588" fill="white"/>
</mask>
<g mask="url(#mask0_0_5748)">
<path d="M95.0313 162.707L127.514 145.94C149.965 160.708 163.665 275.508 163.665 275.508L111.483 248.226L95.0313 162.707Z" fill="#6E9BFA"/>
<path fill-rule="evenodd" clip-rule="evenodd" d="M95.0313 162.707L127.514 145.94C149.965 160.708 163.665 275.508 163.665 275.508L111.483 248.226L95.0313 162.707Z" stroke="#0F2B5E" stroke-width="4.95868" stroke-linecap="round" stroke-linejoin="round"/>
<path d="M127.72 191.526C126.513 213.733 124.058 243.177 119.139 277.381L5.76027 270.103L-39.7864 183.557L-39.6098 143.271C-39.6098 143.271 38.6656 72.2406 128.78 146.982" fill="#6E9BFA"/>
<path d="M127.72 191.526C126.513 213.733 124.058 243.177 119.139 277.381L5.76027 270.103L-39.7864 183.557L-39.6098 143.271C-39.6098 143.271 38.6656 72.2406 128.78 146.982" stroke="#0F2B5E" stroke-width="4.95868" stroke-linecap="round" stroke-linejoin="round"/>
<path d="M35.1931 113.901L44.6406 77.7634L71.6122 86.5198V116.959L72.4912 128.622L68.9639 135.749L61.5561 134.625L46.0493 133.262" fill="#F5F6F7"/>
<mask id="mask1_0_5748" style="mask-type:alpha" maskUnits="userSpaceOnUse" x="35" y="77" width="38" height="59">
<path fill-rule="evenodd" clip-rule="evenodd" d="M35.1931 113.901L44.6406 77.7634L71.6122 86.5198V116.959L72.4912 128.622L68.9639 135.749L61.5561 134.625L46.0493 133.262" fill="white"/>
</mask>
<g mask="url(#mask1_0_5748)">
<path d="M79.9542 123.257C45.928 116.589 75.5362 108.773 63.4137 103.066C60.0787 101.496 65.387 85.1851 65.387 85.1851L74.632 91.233" fill="#B2CCF7"/>
</g>
<path d="M35.1931 113.901L44.6406 77.7634L71.6122 86.5198V116.959L72.4912 128.622L68.9639 135.749L61.5561 134.625L46.0493 133.262" stroke="#0F2B5E" stroke-width="4.95868" stroke-linecap="round" stroke-linejoin="round"/>
<path d="M51.018 76.6623L60.5032 54.1907L87.1626 33.2979C91.1572 57.4333 115.163 125.213 62.2522 99.1227" fill="#F5F6F7"/>
<path d="M51.018 76.6623L60.5032 54.1907L87.1626 33.2979C91.1572 57.4333 115.163 125.213 62.2522 99.1227" stroke="#0F2B5E" stroke-width="4.95868" stroke-linecap="round" stroke-linejoin="round"/>
<path d="M47.4065 78.1617C57.4247 82.1338 71.252 62.244 65.3475 55.8275C65.3475 55.8275 82.2247 62.6072 94.1151 52.7645C134.448 57.9653 131.783 8.40602 96.4065 22.5875C77.9896 12.4529 57.4935 22.4598 58.3871 33.7999C44.5302 21.5545 17.5609 66.3273 47.4065 78.1617Z" fill="#6E9BFA" stroke="#0F2B5E" stroke-width="4.95868" stroke-linecap="round" stroke-linejoin="round"/>
<path d="M45.6692 88.8998C27.6166 73.6643 41.1238 50.8778 61.7428 78.4346L45.6692 88.8998Z" fill="#F5F6F7"/>
<path d="M45.6692 88.8998C27.6166 73.6643 41.1238 50.8778 61.7428 78.4346" stroke="#0F2B5E" stroke-width="4.95868" stroke-linecap="round" stroke-linejoin="round"/>
<rect x="79.8616" y="64.2126" width="5.01904" height="9.25711" rx="2.50933" transform="rotate(-17.8384 79.8616 64.2126)" fill="#0F2B5E"/>
<path d="M81.8051 54.7681C74.4863 56.7699 73.8413 60.2781 78.4993 59.3251C83.1574 58.3721 86.5867 53.4601 81.8051 54.7681Z" fill="#0F2B5E"/>
<path d="M90.1854 66.0071C100.791 68.8124 100.519 79.1172 93.7127 78.8798L90.1854 66.0071Z" fill="#F5F6F7"/>
<path d="M90.1854 66.0071C100.791 68.8124 100.519 79.1172 93.7127 78.8798" stroke="#0F2B5E" stroke-width="4.95868" stroke-linecap="round" stroke-linejoin="round"/>
<ellipse opacity="0.27" cx="76.8386" cy="76.3912" rx="5.71437" ry="4.21403" transform="rotate(-8.1477 76.8386 76.3912)" fill="#B2CCF7"/>
<path d="M81.0222 81.4346C83.537 83.6369 87.0513 84.2955 90.1929 83.1532L81.0222 81.4346Z" fill="#F5F6F7"/>
<path d="M81.0222 81.4346C83.537 83.6369 87.0513 84.2955 90.1929 83.1532" stroke="#0F2B5E" stroke-width="4.95868" stroke-linecap="round" stroke-linejoin="round"/>
<path d="M74.6516 151.156L61.555 134.627C61.555 134.627 72.2144 131.503 72.942 110.473L83.4256 119.25L74.6516 151.156Z" fill="#6E9BFA" stroke="#0F2B5E" stroke-width="4.95868" stroke-linecap="round" stroke-linejoin="round"/>
<path d="M21.3087 114.79C24.9665 108.958 30.8517 104.878 37.5957 103.498C37.5957 103.498 34.8343 126.651 61.555 134.627L47.5189 153.747C47.5189 153.747 23.0025 130.47 21.3087 114.79Z" fill="#6E9BFA" stroke="#0F2B5E" stroke-width="4.95868" stroke-linecap="round" stroke-linejoin="round"/>
<path d="M95.0467 22.6069L95.7138 23.9352" stroke="#0F2B5E" stroke-width="4.95868" stroke-linecap="round" stroke-linejoin="round"/>
<path d="M48.7608 75.8965C48.3071 76.0675 47.9916 76.4833 47.9491 76.9662C47.9066 77.4491 48.1445 77.9136 48.5613 78.1613" stroke="#0F2B5E" stroke-width="4.95868" stroke-linecap="round" stroke-linejoin="round"/>
</g>
</g>
<defs>
<filter id="filter0_d_0_5748" x="0.129578" y="15.9141" width="154.118" height="139.507" filterUnits="userSpaceOnUse" color-interpolation-filters="sRGB">
<feFlood flood-opacity="0" result="BackgroundImageFix"/>
<feColorMatrix in="SourceAlpha" type="matrix" values="0 0 0 0 0 0 0 0 0 0 0 0 0 0 0 0 0 0 127 0" result="hardAlpha"/>
<feOffset dy="4"/>
<feGaussianBlur stdDeviation="2"/>
<feComposite in2="hardAlpha" operator="out"/>
<feColorMatrix type="matrix" values="0 0 0 0 0 0 0 0 0 0 0 0 0 0 0 0 0 0 0.25 0"/>
<feBlend mode="normal" in2="BackgroundImageFix" result="effect1_dropShadow_0_5748"/>
<feBlend mode="normal" in="SourceGraphic" in2="effect1_dropShadow_0_5748" result="shape"/>
</filter>
</defs>
</svg>
